<svg xmlns="http://www.w3.org/2000/svg">
  <symbol id="svg-close"  viewBox="0 0 1024 1024">
    <title>关闭</title>
    <path d="M184.64768 836.34176a20.50048 20.50048 0 0 0 28.9792-0.02048l292.70016-293.04832 292.70016 293.04832a20.48 20.48 0 1 0 28.99968-28.93824L535.61344 514.64192 828.0064 221.92128a20.48 20.48 0 1 0-28.9792-28.93824L506.30656 486.03136 213.6064 192.98304a20.48 20.48 0 1 0-28.9792 28.93824l292.37248 292.72064L184.6272 807.38304a20.48 20.48 0 0 0 0.02048 28.95872z"></path>
  </symbol>
  <symbol id="svg-success"  viewBox="0 0 1024 1024">
    <title>成功</title>
    <path d="M512 976.742c-256.67 0-464.742-208.071-464.742-464.737C47.258 255.33 255.329 47.258 512 47.258S976.742 255.329 976.742 512c0 256.67-208.071 464.742-464.742 464.742z m225.413-754.268C575.754 328.69 473.231 647.337 473.231 647.337l-63.088-156.795-130.12 101.161c55.209 25.288 134.067 106.214 201.093 212.429C528.43 692.864 674.324 465.254 745.298 445.02c-27.597-80.921-11.822-146.678-7.885-222.546z m0 0" fill="#1b1e31"></path>
  </symbol>
  <symbol id="svg-error"  viewBox="0 0 1024 1024">
    <title>错误</title>
    <path d="M1007.983211 512c0-273.924743-222.059492-495.984235-495.983211-495.984235S16.016789 238.075257 16.016789 512s222.059492 495.984235 495.984235 495.984235c113.738437 0 221.667565-38.428218 308.796972-107.830891 10.45205-8.325619 12.175297-23.547299 3.849678-33.998325-8.325619-10.45205-23.547299-12.175297-33.998325-3.849678-78.636988 62.638619-175.962617 97.290837-278.648324 97.290837-247.200078 0-447.595154-200.395076-447.595154-447.595154S264.799922 64.404846 512 64.404846s447.595154 200.395076 447.595154 447.595154c0 84.755336-23.572882 165.977195-67.401086 236.329497-7.065929 11.341303-3.598968 26.263154 7.742335 33.329083 11.341303 7.065929 26.263154 3.598968 33.329083-7.742335C981.841831 695.941336 1007.983211 605.866854 1007.983211 512zM524.260232 537.694195 371.999432 692.738387c-9.362228 9.534144-24.681122 9.67229-34.214243 0.310062-9.533121-9.362228-9.67229-24.681122-0.310062-34.214243l152.875806-155.669432L337.475128 347.495342c-9.362228-9.534144-9.224082-24.852014 0.310062-34.214243 9.534144-9.362228 24.852014-9.224082 34.214243 0.310062l152.260799 155.044192 152.261822-155.044192c9.362228-9.534144 24.681122-9.67229 34.214243-0.310062 9.533121 9.362228 9.67229 24.681122 0.310062 34.214243L558.170552 503.164774l152.875806 155.669432c9.362228 9.533121 9.224082 24.852014-0.310062 34.214243-9.534144 9.362228-24.852014 9.224082-34.214243-0.310062L524.260232 537.694195z" fill="#1b1e31"></path>
  </symbol>
  <symbol id="svg-warning"  viewBox="0 0 1024 1024">
    <title>警告</title>
    <path d="M512 0C229.205333 0 0 229.205333 0 512s229.205333 512 512 512 512-229.205333 512-512S794.794667 0 512 0z m0 796.458667A56.917333 56.917333 0 1 1 511.957333 682.666667 56.917333 56.917333 0 0 1 512 796.458667z m54.186667-227.797334h0.128a60.501333 60.501333 0 0 1-53.802667 55.893334c2.048 0.256 3.882667 1.152 5.973333 1.152h-11.818666c2.048 0 3.84-0.981333 5.845333-1.109334a59.093333 59.093333 0 0 1-53.162667-55.893333l-13.056-284.16a54.314667 54.314667 0 0 1 54.613334-57.045333h26.282666a52.992 52.992 0 0 1 54.186667 57.002666l-15.146667 284.16z" fill="#1b1e31"></path>
  </symbol>
  <symbol id="svg-info"  viewBox="0 0 1024 1024">
    <title>信息</title>
    <path d="M512 1024c282.771 0 512-229.23 512-512s-229.23-512-512-512-512 229.23-512 512 229.23 512 512 512zM432 256c0-44.183 35.817-80 80-80s80 35.817 80 80v31.999c0 44.183-35.817 80-80 80s-80-35.817-80-80v-31.999zM431.999 512c0-44.183 35.817-80 80-80s80 35.817 80 80v256c0 44.183-35.817 80-80 80s-80-35.817-80-80v-256z" fill="#1b1e31"></path>
  </symbol>
</svg>